<svg xmlns="http://www.w3.org/2000/svg" width="50" height="100" viewBox="0 0 50 100">
  <defs>
    <style>
      .cls-1 {
        fill: #fff;
      }

      .cls-2 {
        fill: none;
        stroke: #babec5;
        stroke-linecap: round;
        stroke-linejoin: round;
        stroke-width: 4px;
      }

      .cls-3, .cls-4 {
        stroke: none;
      }

      .cls-4 {
        fill: #ddd;
      }
    </style>
  </defs>
  <g id="btn__" data-name="btn_&gt;" transform="translate(-302 -530)">
    <g id="Shape_824" data-name="Shape 824" transform="translate(302 530)">
      <g id="Ellipse_835" data-name="Ellipse 835" class="cls-1">
        <path class="cls-3" d="M 0.4998034834861755 99.49745178222656 L 0.4998034834861755 0.5023470520973206 C 7.005795001983643 0.5660327076911926 13.31731033325195 1.873026013374329 19.26725769042969 4.389647483825684 C 25.1616039276123 6.88274097442627 30.45537757873535 10.45194053649902 35.00152206420898 14.99810123443604 C 39.54766845703125 19.54426002502441 43.11685562133789 24.83804702758789 45.60996246337891 30.7324333190918 C 48.19100189208984 36.8347282409668 49.49969863891602 43.31727600097656 49.49969863891602 49.99999237060547 C 49.49969863891602 56.68265914916992 48.19100189208984 63.16516876220703 45.60996246337891 69.26744842529297 C 43.11685562133789 75.16179656982422 39.54766845703125 80.45556640625 35.00152206420898 85.00171661376953 C 30.45537757873535 89.54785919189453 25.1616039276123 93.11705780029297 19.26725769042969 95.61015319824219 C 13.31731033325195 98.12677764892578 7.005795001983643 99.43376922607422 0.4998034834861755 99.49745178222656 Z"/>
        <path class="cls-4" d="M 0.9997885823249817 98.99000549316406 C 7.261806964874268 98.86592102050781 13.33706378936768 97.57552337646484 19.07248115539551 95.14967346191406 C 24.90724945068359 92.68178558349609 30.14759635925293 89.14855194091797 34.64797973632812 84.64817047119141 C 39.14836502075195 80.14778900146484 42.68159484863281 74.90744018554688 45.14948272705078 69.07266998291016 C 47.70428848266602 63.03236389160156 48.99971008300781 56.61540222167969 48.99971008300781 50.00001525878906 C 48.99971008300781 43.38455581665039 47.70428848266602 36.96755599975586 45.14948272705078 30.92720794677734 C 42.68159484863281 25.09243965148926 39.14836502075195 19.85205459594727 34.64797973632812 15.35167026519775 C 30.14759635925293 10.85124683380127 24.90724945068359 7.318054676055908 19.07248115539551 4.850131511688232 C 13.33706378936768 2.424280643463135 7.261806964874268 1.133883357048035 0.9997885823249817 1.009795784950256 L 0.9997885823249817 98.99000549316406 M -0.0002114011294906959 99.99990081787109 L -0.0002114011294906959 -9.918212890625e-05 C 27.6140193939209 -9.918212890625e-05 49.99971008300781 22.38559341430664 49.99971008300781 50.00001525878906 C 49.99971008300781 77.61421203613281 27.6140193939209 99.99990081787109 -0.0002114011294906959 99.99990081787109 Z"/>
      </g>
      <path id="Shape_824-2" data-name="Shape 824" class="cls-2" d="M25.429,40l-11,10.664L25.429,62"/>
    </g>
  </g>
</svg>
