<svg xmlns="http://www.w3.org/2000/svg" width="13.001" height="6" viewBox="0 0 13.001 6">
    <g data-name="icon_arrow_b">
        <path data-name="패스 124" d="M5.646 5.689a1.327 1.327 0 0 0 1.708 0L12.813.952a.532.532 0 0 0 .042-.771.581.581 0 0 0-.8-.041L6.597 4.878a.173.173 0 0 1-.2 0L.938.14a.581.581 0 0 0-.8.041.532.532 0 0 0 .042.771z"/>
    </g>
    <path data-name="Color Overlay" d="m1340.646 99.688-5.459-4.738a.532.532 0 0 1-.042-.77.581.581 0 0 1 .8-.041l5.458 4.738a.174.174 0 0 0 .2 0l5.458-4.738a.58.58 0 0 1 .8.041.532.532 0 0 1-.042.77l-5.458 4.738a1.327 1.327 0 0 1-1.708 0z" style="fill:#565656" transform="translate(-1335 -94)"/>
</svg>
