<svg id="btn__" data-name="btn_&gt;" xmlns="http://www.w3.org/2000/svg" width="50" height="100" viewBox="0 0 50 100">
  <defs>
    <style>
      .cls-1 {
        fill: #fff;
      }

      .cls-2 {
        fill: none;
        stroke: #babec5;
        stroke-linecap: round;
        stroke-linejoin: round;
        stroke-width: 4px;
      }

      .cls-3, .cls-4 {
        stroke: none;
      }

      .cls-4 {
        fill: #ddd;
      }
    </style>
  </defs>
  <g id="Shape_824" data-name="Shape 824" transform="translate(0 0)">
    <g id="Ellipse_835" data-name="Ellipse 835" class="cls-1" transform="translate(0 0)">
      <path class="cls-3" d="M 49.49978637695312 99.49745178222656 C 42.99377822875977 99.43376922607422 36.6822509765625 98.12677764892578 30.73230361938477 95.61015319824219 C 24.83794403076172 93.11705780029297 19.54415702819824 89.54785919189453 14.99801158905029 85.00171661376953 C 10.45186424255371 80.45556640625 6.882664680480957 75.16179656982422 4.389557838439941 69.26744842529297 C 1.808504462242126 63.16516876220703 0.4998111426830292 56.68265914916992 0.4998111426830292 49.99999237060547 C 0.4998111426830292 43.31727600097656 1.808504462242126 36.8347282409668 4.389557838439941 30.7324333190918 C 6.882664680480957 24.83804702758789 10.45186424255371 19.54426002502441 14.99801158905029 14.99810123443604 C 19.54415702819824 10.45194053649902 24.83794403076172 6.88274097442627 30.73230361938477 4.389647483825684 C 36.6822509765625 1.873026013374329 42.99377822875977 0.5660327076911926 49.49978637695312 0.5023470520973206 L 49.49978637695312 99.49745178222656 Z"/>
      <path class="cls-4" d="M 48.99979782104492 98.99000549316406 L 48.99979782104492 1.009795665740967 C 42.73775100708008 1.133883237838745 36.66252136230469 2.424280643463135 30.92706680297852 4.850131511688232 C 25.09229850769043 7.318054676055908 19.85195159912109 10.85124683380127 15.35156726837158 15.35167026519775 C 10.8511438369751 19.85205459594727 7.317951679229736 25.09243965148926 4.850028514862061 30.92720794677734 C 2.295220851898193 36.96755599975586 0.9997978210449219 43.38455581665039 0.9997978210449219 50.00001525878906 C 0.9997978210449219 56.61540222167969 2.295220851898193 63.03236389160156 4.850028514862061 69.07266998291016 C 7.317951679229736 74.90744018554688 10.8511438369751 80.14778900146484 15.35156726837158 84.64817047119141 C 19.85195159912109 89.14855194091797 25.09229850769043 92.68178558349609 30.92706680297852 95.14967346191406 C 36.66252136230469 97.57552337646484 42.73775100708008 98.86592102050781 48.99979782104492 98.99000549316406 M 49.99979782104492 99.99990081787109 C 22.38552856445312 99.99990081787109 -0.000202178955078125 77.61421203613281 -0.000202178955078125 50.00001525878906 C -0.000202178955078125 22.38559341430664 22.38552856445312 -9.918212890625e-05 49.99979782104492 -9.918212890625e-05 L 49.99979782104492 99.99990081787109 Z"/>
    </g>
    <path id="Shape_824-2" data-name="Shape 824" class="cls-2" d="M14.429,40l11,10.664L14.429,62" transform="translate(10.118 0)"/>
  </g>
</svg>
