<svg xmlns="http://www.w3.org/2000/svg" width="137.667" height="20.101" viewBox="0 0 137.667 20.101">
    <defs>
        <style>
            .cls-2{fill:#ffaa1a}
        </style>
    </defs>
    <g id="bi" transform="translate(-158.505 -133.304)">
        <path id="패스_1" data-name="패스 1" d="M227.092 150.5a9 9 0 0 1-2.368.35c-2.5 0-3.83-1.07-3.83-3.35v-13.7h1.4c1.459 0 1.939.851 1.939 2.037v1.038h2.86v.806a1.75 1.75 0 0 1-1.972 1.794h-.888v7.438c0 .815.277 1.394 1.43 1.394a5.315 5.315 0 0 0 1.43-.226v2.42m-8.68-11.405a6.077 6.077 0 0 1 1.531.239v-2.459a15.173 15.173 0 0 0-2.79-.319c-2.208 0-3.761.91-3.761 3.3v10.663h3.339v-10c0-.881.562-1.42 1.682-1.42m-19.164 1.326c0-1.37-.773-3.854-5.237-3.854a5.814 5.814 0 0 0-3.532.825 6.655 6.655 0 0 0-3.536-.825c-4.122 0-5.236 2.053-5.236 3.756v10.2h3.367v-9.974c0-.578.325-1.45 1.869-1.45 1.2 0 1.851.605 1.851 1.45v9.974h3.368v-9.974c0-.84.638-1.45 1.849-1.45 1.32 0 1.872.675 1.872 1.45v7.689a2.123 2.123 0 0 0 2.268 2.356h1.1v-10.17m7.114-3.86c4.211 0 5.74 1.994 5.74 4.649v4.318c0 3.033-1.947 5.322-5.976 5.322-3.855 0-5.959-1.81-5.959-4.252 0-1.944 1.324-3.227 4.195-4.018.42-.116 1.817-.534 2.453-.719 1.452-.423 1.917-.754 1.917-1.38 0-.662-.806-1.386-2.447-1.386-1.962 0-2.577 1.213-2.589 2.086h-3.054c0-2.7 1.608-4.62 5.721-4.62m-.5 11.748a2.762 2.762 0 0 0 2.88-2.9v-1.647s-2.55.73-3.264.948c-1.273.387-1.885 1.035-1.885 1.882s.7 1.7 2.268 1.7" transform="translate(-8.178 -.173)" style="fill:#3c3f47"/>
        <path id="패스_2" data-name="패스 2" class="cls-2" d="M165.179 150.588c-4.646 0-6.674-2.843-6.674-6.443v-3.887c0-5 3.336-6.953 7.247-6.953 4.725 0 6.788 2.571 6.788 5.144 0 3.752-3.837 4.674-5.531 5.165-.488.14-2.286.675-2.692.793-1.583.457-2.038.969-2.038 1.552 0 .994.87 1.851 2.9 1.851 1.769 0 3.06-.6 3.275-2.443h3.7c-.379 2.921-2.134 5.221-6.969 5.221m.417-14.5c-2.055 0-3.4 1.374-3.4 3.716v2.457s2.779-.813 3.94-1.164c.97-.293 2.71-.911 2.71-2.444 0-1.336-1.083-2.565-3.251-2.565"/>
        <path id="패스_3" data-name="패스 3" class="cls-2" d="M259.892 151.589a2.705 2.705 0 0 0 3.092.175 1.668 1.668 0 0 0 .707-.845h2.328a4.426 4.426 0 0 1-1.713 2.478 5.067 5.067 0 0 1-2.793.743 5.5 5.5 0 0 1-2.049-.363 4.227 4.227 0 0 1-1.546-1.035 4.685 4.685 0 0 1-.979-1.6 5.893 5.893 0 0 1-.345-2.051 5.658 5.658 0 0 1 .354-2.012 4.7 4.7 0 0 1 2.562-2.681 5.019 5.019 0 0 1 2-.39 4.566 4.566 0 0 1 2.139.475 4.32 4.32 0 0 1 1.5 1.277 5.284 5.284 0 0 1 .847 1.823 6.792 6.792 0 0 1 .186 2.141h-6.942a2.671 2.671 0 0 0 .651 1.864m2.992-5.066a1.87 1.87 0 0 0-1.446-.52 2.309 2.309 0 0 0-1.053.212 2.019 2.019 0 0 0-.67.53 1.943 1.943 0 0 0-.354.671 3.021 3.021 0 0 0-.121.633h4.3a3.064 3.064 0 0 0-.659-1.527" transform="translate(-34.572 -3.773)"/>
        <path id="패스_4" data-name="패스 4" class="cls-2" d="m277.067 153.9 3.257-9.63H277.7l-2.031 6.575h-.038l-2.028-6.575h-2.775l3.3 9.63z" transform="translate(-39.588 -3.865)"/>
        <path id="패스_5" data-name="패스 5" class="cls-2" d="M288.042 151.449a2.716 2.716 0 0 0 3.091.177 1.661 1.661 0 0 0 .708-.848h2.327a4.418 4.418 0 0 1-1.712 2.476 5.052 5.052 0 0 1-2.793.745 5.507 5.507 0 0 1-2.048-.363 4.282 4.282 0 0 1-1.548-1.032 4.72 4.72 0 0 1-.978-1.6 5.9 5.9 0 0 1-.342-2.047 5.578 5.578 0 0 1 .354-2.011 4.652 4.652 0 0 1 2.559-2.681 4.972 4.972 0 0 1 2-.392 4.558 4.558 0 0 1 2.141.476 4.246 4.246 0 0 1 1.5 1.276 5.289 5.289 0 0 1 .848 1.825 6.8 6.8 0 0 1 .185 2.139h-6.944a2.664 2.664 0 0 0 .651 1.864m2.988-5.066a1.861 1.861 0 0 0-1.443-.521 2.3 2.3 0 0 0-1.05.213 2.034 2.034 0 0 0-.672.533 1.953 1.953 0 0 0-.354.668 2.859 2.859 0 0 0-.12.634h4.3a3.06 3.06 0 0 0-.661-1.528" transform="translate(-44.495 -3.724)"/>
        <path id="패스_6" data-name="패스 6" class="cls-2" d="M303.334 144.13v1.787h.037a3.494 3.494 0 0 1 .5-.829 3.385 3.385 0 0 1 .729-.651 3.563 3.563 0 0 1 .875-.418 3.148 3.148 0 0 1 .967-.15 2.056 2.056 0 0 1 .578.094v2.456a5.086 5.086 0 0 0-.448-.063 4.524 4.524 0 0 0-.5-.03 2.813 2.813 0 0 0-1.23.244 2.112 2.112 0 0 0-.809.66 2.684 2.684 0 0 0-.438.979 5.307 5.307 0 0 0-.131 1.21v4.34h-2.643v-9.63z" transform="translate(-50.16 -3.724)"/>
        <path id="패스_7" data-name="패스 7" class="cls-2" d="M315.541 156.767a3.837 3.837 0 0 1-2.124.5c-.272 0-.541-.01-.81-.029s-.536-.039-.809-.066V155c.247.025.5.051.764.074a5.831 5.831 0 0 0 .782.019 1.028 1.028 0 0 0 .774-.41 1.327 1.327 0 0 0 .249-.78 1.6 1.6 0 0 0-.11-.6l-3.371-9.031h2.814l2.178 6.594h.035l2.1-6.594h2.739l-4.023 10.82a3.268 3.268 0 0 1-1.191 1.676" transform="translate(-53.707 -3.865)"/>
        <path id="패스_8" data-name="패스 8" class="cls-2" d="M332.394 150.674a2.757 2.757 0 0 1-1.221 1.128 4.471 4.471 0 0 1-3.6-.074 3.821 3.821 0 0 1-1.349-1.138 5.1 5.1 0 0 1-.8-1.648 6.863 6.863 0 0 1-.271-1.936 6.454 6.454 0 0 1 .271-1.872 4.843 4.843 0 0 1 .8-1.592 3.873 3.873 0 0 1 3.192-1.527 3.792 3.792 0 0 1 1.63.363 2.844 2.844 0 0 1 1.222 1.071h.036v-4.842h2.644v13.3h-2.512v-1.231m-.15-4.758a2.828 2.828 0 0 0-.383-.967 2.1 2.1 0 0 0-.7-.678 2.043 2.043 0 0 0-1.081-.263 2.143 2.143 0 0 0-1.1.263 2.06 2.06 0 0 0-.716.687 3.079 3.079 0 0 0-.392.978 5.32 5.32 0 0 0-.122 1.145 4.9 4.9 0 0 0 .132 1.116 3.054 3.054 0 0 0 .418 1 2.386 2.386 0 0 0 .725.708 1.988 1.988 0 0 0 1.053.268 2.1 2.1 0 0 0 1.089-.258 2 2 0 0 0 .7-.7 3.182 3.182 0 0 0 .374-1 5.85 5.85 0 0 0 .112-1.153 5.752 5.752 0 0 0-.112-1.146" transform="translate(-58.735 -1.869)"/>
        <path id="패스_9" data-name="패스 9" class="cls-2" d="M342.331 145.547a3.144 3.144 0 0 1 1.044-.987 4.524 4.524 0 0 1 1.424-.532 8.154 8.154 0 0 1 1.593-.158 11.093 11.093 0 0 1 1.472.1 4.467 4.467 0 0 1 1.359.4 2.681 2.681 0 0 1 1 .829 2.31 2.31 0 0 1 .394 1.407v5.007a9.665 9.665 0 0 0 .074 1.248 2.223 2.223 0 0 0 .258.895h-2.68a3.444 3.444 0 0 1-.122-.458 3.391 3.391 0 0 1-.064-.476 3.438 3.438 0 0 1-1.491.916 6.021 6.021 0 0 1-1.75.259 4.7 4.7 0 0 1-1.285-.168 2.916 2.916 0 0 1-1.043-.521 2.389 2.389 0 0 1-.7-.895 2.978 2.978 0 0 1-.252-1.283 2.793 2.793 0 0 1 .289-1.351 2.412 2.412 0 0 1 .746-.846 3.29 3.29 0 0 1 1.042-.475 11.135 11.135 0 0 1 1.182-.252c.394-.06.789-.11 1.173-.149a6.971 6.971 0 0 0 1.023-.168 1.784 1.784 0 0 0 .71-.325.717.717 0 0 0 .239-.623 1.393 1.393 0 0 0-.138-.68 1.035 1.035 0 0 0-.372-.392 1.5 1.5 0 0 0-.539-.186 4.712 4.712 0 0 0-.66-.045 2.015 2.015 0 0 0-1.23.335 1.5 1.5 0 0 0-.523 1.12h-2.644a3.072 3.072 0 0 1 .465-1.547m5.224 3.733a4.433 4.433 0 0 1-.538.139c-.194.038-.4.068-.6.093s-.423.056-.637.094a4.577 4.577 0 0 0-.585.148 1.737 1.737 0 0 0-.5.252 1.213 1.213 0 0 0-.346.4 1.321 1.321 0 0 0-.129.615 1.269 1.269 0 0 0 .129.594 1.008 1.008 0 0 0 .356.382 1.448 1.448 0 0 0 .522.2 3.4 3.4 0 0 0 .613.056 2.314 2.314 0 0 0 1.21-.262 1.709 1.709 0 0 0 .634-.624 1.988 1.988 0 0 0 .253-.733 5.262 5.262 0 0 0 .044-.6v-.987a1.153 1.153 0 0 1-.418.233" transform="translate(-64.522 -3.724)"/>
        <path id="패스_10" data-name="패스 10" class="cls-2" d="M360.517 156.767a3.839 3.839 0 0 1-2.125.5c-.273 0-.544-.01-.811-.029s-.536-.039-.809-.066V155c.248.025.5.051.762.074a5.883 5.883 0 0 0 .784.019 1.029 1.029 0 0 0 .774-.41 1.334 1.334 0 0 0 .251-.78 1.571 1.571 0 0 0-.115-.6l-3.369-9.031h2.811l2.18 6.594h.038l2.1-6.594h2.737l-4.023 10.82a3.241 3.241 0 0 1-1.19 1.676" transform="translate(-69.559 -3.865)"/>
        <path id="패스_11" data-name="패스 11" d="M344.111 137.011a2.109 2.109 0 0 0-2.168 2.367v1.57s1.774-.517 2.511-.741c.624-.19 1.732-.585 1.732-1.561 0-.852-.69-1.635-2.075-1.635" transform="translate(-64.654 -1.307)" style="fill:#abaf0c"/>
    </g>
</svg>
